<mxfile host="app.diagrams.net" agent="Mozilla/5.0 (X11; Linux x86_64) AppleWebKit/537.36 (KHTML, like Gecko) Chrome/132.0.0.0 Safari/537.36" version="26.0.7">
  <diagram name="Page-1" id="kKWfJt7MCcozJ3Ia85Sf">
    <mxGraphModel dx="2459" dy="2025" grid="1" gridSize="10" guides="1" tooltips="1" connect="1" arrows="1" fold="1" page="1" pageScale="1" pageWidth="850" pageHeight="1100" math="0" shadow="0">
      <root>
        <mxCell id="0" />
        <mxCell id="1" parent="0" />
        <mxCell id="W52F-aJRYK7GDW3l5he3-41" value="" style="whiteSpace=wrap;html=1;dashed=1;strokeColor=#82b366;imageAspect=0;rounded=1;glass=0;sketch=1;curveFitting=1;jiggle=2;fillColor=#d5e8d4;dashPattern=8 8;" vertex="1" parent="1">
          <mxGeometry x="750" y="-130" width="260" height="660" as="geometry" />
        </mxCell>
        <mxCell id="W52F-aJRYK7GDW3l5he3-18" value="" style="whiteSpace=wrap;html=1;dashed=1;strokeColor=#9673a6;imageAspect=0;rounded=1;glass=1;sketch=1;curveFitting=1;jiggle=2;fillColor=#e1d5e7;gradientColor=none;dashPattern=8 8;" vertex="1" parent="1">
          <mxGeometry x="388.88" y="120" width="190" height="380" as="geometry" />
        </mxCell>
        <mxCell id="W52F-aJRYK7GDW3l5he3-17" value="" style="whiteSpace=wrap;html=1;dashed=1;dashPattern=8 8;strokeColor=#006EAF;imageAspect=0;rounded=1;glass=1;sketch=1;curveFitting=1;jiggle=2;fillColor=#1ba1e2;fontColor=#ffffff;" vertex="1" parent="1">
          <mxGeometry x="788" y="120" width="190" height="380" as="geometry" />
        </mxCell>
        <mxCell id="W52F-aJRYK7GDW3l5he3-15" value="" style="whiteSpace=wrap;html=1;dashed=1;dashPattern=8 8;strokeColor=#6c8ebf;imageAspect=0;rounded=1;glass=1;sketch=1;curveFitting=1;jiggle=2;fillColor=#dae8fc;" vertex="1" parent="1">
          <mxGeometry x="-10" y="120" width="190" height="380" as="geometry" />
        </mxCell>
        <mxCell id="W52F-aJRYK7GDW3l5he3-3" value="" style="shape=image;verticalLabelPosition=bottom;labelBackgroundColor=default;verticalAlign=top;aspect=fixed;imageAspect=0;image=https://upload.wikimedia.org/wikipedia/commons/thumb/b/bb/Ros_logo.svg/2560px-Ros_logo.svg.png;" vertex="1" parent="1">
          <mxGeometry x="16.24" y="180" width="137.53" height="40" as="geometry" />
        </mxCell>
        <mxCell id="W52F-aJRYK7GDW3l5he3-4" value="" style="shape=image;verticalLabelPosition=bottom;labelBackgroundColor=default;verticalAlign=top;aspect=fixed;imageAspect=0;image=data:image/png,iVBORw0KGgoAAAANSUhEUgAAA40AAADMCAYAAADXuEZtAAAABmJLR0QA/wD/AP+gvaeTAABDz0lEQVR42u2dB7gdRdnHCVKkCJ+IAlI+pHyIiCBXSM7unsulBRCkB+kEhRBI7ilJIHQvIk2kSBGR8okoQigiSlFKQMoHiBRDBAwhQpKzM+emkBDSk/O9755NctNuOzvv7uz+f88zz009Z3d2dmb+87Y11gAAAAAAAAAAAAAAAAAAAAAAAAAAAAAAAAAAAAAAAAAAAAAAAAAAAAAAAAAAAAAAAAAAAAAAAAAAAAAAAAAAAAAAAAAAAAAAAAAAAAAAAAAAAAAAAAAAAACQUkb0VxsUvOpBRde/tOjqUSVXvVV0VYXaDGo1arOotfOfU3uk6KjLyp76Xjk3cZOs9dWw5slblzx1PPXH9dRXj9PPd+nnNPo5h9ri4Neenki/foX68+6i548s5LTT1lJbCyMNAAAAAAAAYA3nuu1fKLj+qSQAnyaBMz8Uhz1tC6g9W3D14Na+UzdKa1+19p20Fd3jxSQC3+hlP3H7lAT3/SXHPwQCEgAAAAAAAJBYSvn2LUqufw2LmAYE0KraLBJWN7MlLj19VdmD7uthagsj7qtJ1Mps4cWIBAAAAAAAACQCciVdr+Cpn4RulDWDbS6L0rNbqhva2ldFr7JNwdMP1N1NjfaVLjj+aWusUeuDEQoAAAAAAACIjZLnt5BA+dCwAFrZmpbTB9rVU7U+BUe1hjGckn31Yqujt8dIBQAAAAAAAIgyYEDtc5SY5RID7pXdbYvZ6jioqbZ20vtqyF6TvlRw1aMx9VMtSDrk+QMwagEAAAAAAAAitO0ydh1OvBKjCOrY/l729HZJ7atyzt8rBkvsqpujr8LoBQAAAAAAABiFE6yQAHkmIYIxbHpa0uL3OM6Tru3yMAtsYvqKxP6NiHMEAAAAAAAAGIFdQak0xBPJEowdBJGjniu7/i5x91O9LqUal9R+IlfZKzCaAQAAAAAAAJETFJRPqBDq0BZRu6fQXN1Run/KbiXPwtWCPqpRjOPZGNEAAAAAAACACAWjPtMKMdRBPJJF7SlOAMNJe0z1S+vB49bl7wi+y67+mV9ydA4jGwAAAAAAANC4MMr73yCRMdsyUdSxTSh4/rVFp9IchYAM6lI66vCip+6iz55icb98aHPNSwAAAAAAAEAiqPUhK+PzFgujFdvMoqOepnZZwfWPJZfS73BJjNXd/VC3/atFr+oVPX0K/d/rqb1CbV5a+oPLlmCMAwAAAAAAAHpNwdMnp0gwdtWmU6tQ09Q+zcg9z2dLMkY6AAAAAAAAoMewKydZ5P6dIdGYzeap32O0AwAAAAAAAHoMiYkTIKoy0RYW3ck7YcQDAAAAAAAAeioaX4Kgyky7DiMeAAAAAAAA0G3KueoOJCQWQ0xlpum2ltpaGPkAAAAAAACAbkFWxosgpLLVyp7eHyMfAAAAAAAA0D3R6KrREFKZa1di5AMAAAAAAAC6ZGDLhM+TgJgDEZW59hpGPwAAAAAAAKBLSvnKHhBQmWzzuMwK3gAAAAAAAABAp6DURnZbq6O3xxsAAAAAAAAA6JSCqy+GgMpoy+kD8QYAAAAAAAAAOqXo+D+DgMpmK7j+sXgDAAAAAAAAAJ1SctRtEFCZbT/EGwAAAAAAAADoFBIOd0A8ZdXSqAfjDQAAAAAAAAB0Clkab4CAymijJEh4AwAAAAAAAACdUnTUZRBQmW2H4Q0AAAAAAAAAdErB04MgnjJacsPTu+ENAAAAAAAAAHRK0ak0Q0Blsi0a1FRZH28AAAAAAAAAoFOGt1Q2JQGxGCIqc+0DjP5scnZLdfNCTu1HrulnFF19CSVEupl+jiq6/oMFVz3Frej5T/KflVz9axorvyw6+qqS57eVHH0WxcIeWs6pXVsPHrcuehMAAAAAICPQpnAMRFTWMqeq2zHys0CtTylf2YOE4QgSgY/Ts58a4ThaSJ/5XslV91MrtbqqX9suY9dBnwMA4qLk+gdLrKGllun/hd4GAGRwklU3QkghcypID+VcdYcwydV44bE1h9qLoWWypa2lthaeBgAAohEAAFJAwfX3gZDKVJuDBS+lGyanujtb/jhmNSFjbXpwPZ4+ZUR/tQGeEAAAohEAAKyl1ocmwQ8hpjLimurpBzDmU7ZRog0MWY9/XncZTeZBxcimaRvjSQEAIBoBAMBiOCEGBFVWRGP1IIz49FB2K3l6rpWEj7uH8aQAABCNAABg+8YzN3ETmghnQlSlvr3JlmWM+HRACW4G0zOdn/zES/6xeFoAAIhGAABIATQRXglRlXIro6MOx0hPiWD0VNGScTcL8YwAAIhGAABICee67V+gyXBSyoTSQor1+ieVmPgtZ5MsOP5p9GeHlT29f9Hx9+QyAfxrivM7MqhB5+qfcr26GLJOSrS/YpSnRDDWx7Et9VV/hycGAIBoBACAFEFFvQekoXA9i7+So/ZlIdzrvuirNyvl9RH0eXdQq9qeMXWY1/4/GOEp2BT1q+xMz/Mzi8q7HIqnBgCAaAQAgNRNuvrXFoqiGRTfdXOrp3cz0ScDBtQ+V8ip/UiMjrIhhmylBY6sqBjZ9tO2Rm1NsoS/Yc/Y09Padhm7Dp4cAACiEQAAUgbHH9GkONaSjanPsV1nt1Q3FFuU8u1b0MJ0jUXWnvswqtMBJZQ51aoYWlfdjqcGAIBoBACAlDLEqfx3wuMbZ5Ir7chBTZX14+ojEqqbFx19S4Jr43F7kTLjrocRbT9ssaPnOcEm0cjxwnhyAACIRgAASDGUafObNDm2J24z6qg/DGuevHVS+okT6iTUZfDts7yPvoiRnJLNkOMfY5lbtG5rqa2FJwcAgGgEAICUMzRX+TpNkB8lJXU/ZTk9OYn9xJtjcsW7IikZLcmN8W9Y1NIFxQc+blUcratuxFMDAEA0AgBARijnpmxJk+TLMW9Cx3DWyKT3VcGrHhR3plWySP1mYMuEz2PkpocRjvpKwt2gVx6Hee3iyQEAIBoBACBDDGqqrR0mf1kkvPlczFlRbYrL40Q5XBMxDktsyVM/wGhN40ZIn2iZa+rHa6xR64MnBwCAaAQAgCxOyPnKHpSt9FUhF8v3ySXvADt7qtan6OlTOK5LKM7zT6V+/rYYoakVjVaVwSl5+mo8NQAARCMAAGQYrlkYCqJ3DU3I46n9kK2btvfVyKZpGxcc/SOuV2eor0aTuN4HozLd2JY1teBVmvDUAAAQjQAAAMJC4+owag9Tm9vgJLyAE31Qopsj05hx8Vy3/Qt0f2fSfb4WRcH0kqNua3VVP4zC9NPad+pGMSRYmk/W66fp5/U01i7k8jZUXuYq+vUN9Of30hh8PSh7sxoPATw1AABEIwAAgJXg0g5BSQDP/wVlTXyLJtU5XW5KPfVPar+idkKWSkMUvco21E9n1zffgVW1K0EwPUxEdCW767YePG5djLjsUMhpR1AscrKd6ymGeJNuCVpHbx94HdTf43/xWKZN24/x1AAAEI0AAAC6hK2QHGPHNQy5wDdlUjwi+Ono3BCn8t+o39Zh400isOhO3qnsVvK0Ce/P1luy6OzLLn7Fvnoz9FC2YVdtMcFIBziNXOvwlsqmqA0KAIBoBAAAAACQ3AR5fptMHKJ/LXobAADRCNEIAAAAAMsouv6tApugTzl2Er0NAIBohGgEAAAAgHWbIPWI+fI26rfoaQAARCNEIwAAAABs3AQ56jnjGyBXnY6eBgBANEI0AgAAAMBCaIPyiukNUDnn74WeBgBANEI0AgAAAMDKTVBQwsboBogzGqOnAQAQjRCNAAAAALCQsP6hYUtj9+oyAgAARCNEIwAAAAASRsH13ze9ATrXbf8CehoAANEI0QgAAAAAiEaIRgAARCNEIwAAAAAgGiEaV2Rgy4TPl/KVPUp5fUTBU0W67+up3UflRp6in88WXf06uQL/k349Lvh10NQzRUfdS3GlNxZcPYL/b2ve/8aAAbXPYWQCCUY2TduY5oB9So4+i8bjTTReHw3GJY3P+twQjNXnqT3OpXPo5yVFzx/A47StpbYWRCNE46poPXjcuq256rcLjjo8nA+vo/nv9/Tzr0vGF/18e4X58Nnw39xE9YPPKXj6yLLr74L5EMQ6lvP+l0ue31Ly1A9ovb6MxvSdNEb/SO3FcNy+SW08jdk3gt876mla0/9Cv7+b/z392Zk0l34XuR0AAFbDizFNdhOMb4I8fQpvNBtvqm9iFpK+k7YqOP5ptDDcWnT0P+g+50fYZ5/SIvM3+nkllUTZlzdgsW+WadGM5hl2r5Uc/xDpexzarL4meY/cRjjqK+LPsl9lZxpXF9LYfYHG2ILej1M9LTj08NTxZ3kffbG311N0/D1N9O0aa9T6QDTKUM5N2ZLe2YE0F95C1//3iOfDWTxWS56+upBT+/EBXWzzIM1LEvMCi+WkPNtBTbW1peZDPsSK925rfUgUfjM86HiY2scRv9tTwoOTy0mM7p3FgzcAgIWwVUsiCU7E7Xdx9tnQXOXrdIJ4Pl3Ha9QWC973LD6B51P7uAQkbZaOkX/e+gDJzUL95Fjw/uiwQWrTwAdEbLnhU3BDY/czspbfXPb0dj0Wja4abaJ/TVioIBqXMcxr/x/a6I8MyzZJzoef0Tx8P49n6fmw5Opfy9yj/0RSnjPPw0LPVcUjomp9aD/k0kHaDXTAPVF4jZvGazuNq6NYnFu8oWzfgm7kBLqhnwbuKvXN5SRq0/mFDU8Y/113u1J30MRxNrtmta1RWzNbW+9an1ZP78bmZ+qjX/GCHLr7TQ03ep/Qz8nU3qVf/5lOVH9GE93JfCqXNZHSNqC2TqF54o7DyBWq6FXZknAWLcAjeBNOVoy2YDPu6eFlVw/mv2eXqXKuukPbgLHrQOJFeCLsVvI0Hl+2TCzGJhoDa6yjj6676CWiDzSdgv6ELZ3ym4fg5FXyXsdKbSJ4Xha+t/klp7q7jOBX+4augBL3tZA31t23oAZifTpEox2ikfs0OHCs7/2SMB9WaY96RdGrbCMyBzqVZqH7mtfad+pGyRCN5E0jMeZd/xrJ++L+DSyKyTk8rwTurEJjufHJsJ+/LZ0UXkwX/k4jJwX0At/OL1aqrTSOzoUv0uQGThjeY7HEwiit/cSngCVn0u7snkgbiYsDcdjTFvw/ffIwEucsPCH7erkpJpcLmpD+ZKlYFBeNfOrHCwodZvwnoX0xj+egYc2TtxaztLrtXw0PwgStcapg+r445raxubxX7XLT98XCLQahv9QNi923u3IR5X2HqWuAaIx2PqT1eAhd24cJnQ/n88G9+bix4JBjnMQ90Zp9XOyH/WQICsSMwP1ynLTEPbErPe8tTR1WRTKWyc377Jbq5snc2LuqXxj8Hq17Aal39nFPi89ucMLm6hPDZBZRDpDFZKl9ki1AaREovAkrO5X+dG8X9EoorlZAsmugPoBepg0hA7t5SkinVqFLzSLLBaOYaCx76nsSCYIianP5pF3qnSCL3CBp953hLZVNjR4CUqyU6D3R2mjarS6IQRXa7HXhZvdgZ2MztFpBNCZYNHISj8Bbyo75cB6/zyaTr9XjgUXu5b7YDSTktil0r69IHHzwIWToCWjDWJ5F882P44zhXX5jRBYuzogmcOPjeBNm9cabfboFTNicaZHjpmztp0FNr69ddz9VF0UqFldq6sJyvh1BxJ0wZK9JXyp4/rU0ruakQCyKiEa22tWznlnZN5M45tH8yApO2kcL39svjT1zjssKrLZi97KokNOO2fVKldlNNEFj821OMrQacdsG0ZhM0chhNEJ7REOufvpoU+uE0Ps1M+4kaOEeQuJw8Eyz4reyR4NelHG2sZwsLF6LWf2kRHYz6ag/cOpamzbebMYOU0DLnpTR6YJtgmg4uYUE7nxGxeLyjZ5NwRr/bzHhXlm/Hh8q7EZouWjkQHSLTiA7c2m603SJk0JzdUf6rtmC97XQVPyf+KbYUz83bGFsS+jY9Ivu5J1Wfu/UIxCNyRONdA2HUWu3f83w7zYRG8jeYSLzOVl5Yx4HEu7Is81lTQ0OOS+IOJtvHG1BwdE/MpERulPYR7ZeIye+0x9OmWzD5ptPg+ONZ/JfiCPZRY9fSX4pg+Bw/xJJwbhUONL3knD0xF+mxFrFg8yetZS2yEVj2y5j12FLVsr6aSwLO6PjzFPnCbupPh/1O84eMMLPZcKI/moDcwcf/jWJHpeUmXDF7Kom11iIxt4cOlIsN2XBFc6GanrueC9qDy763O8LHTL9Kq69BNfZlBHG6rcmrj+IVSdjVZrWdgoPeYANAyIDgF8a+tKPEnDji/m0NbmWNKrTUq/RkoSTCZ9f3KQKlFFhZsk4xOLK8Y6Vo1AEOIg/eR+isduHaBta7I7aVZvOWTNNjTOev+vFjEXv6fuRbYjI7Ys+7wPRdc9gCRGyMLdaMi4/XBKjWs5N3MTkd0E09txLhb77sZTOhzNaHd0/qr7iODMhzxQVV1UC9ngTGesG1qkwCdibKR3LrxX76s2MPnxKsvKdsKhkchQzFa9OWvweTSrbc1xhsk5n1SdJTJITbBrz+qRECMZlmVZPbGsZnek4R4jG7sEbVzocejXFfcVtjsk4x4JXaWqsOHyP28dRnbKGLkuibsPGrL45faDwc2jU8vM4b4S5rBJEYzJEYyDgPfVSyufDeVxvNrq1NrDImh8LlIwmJq8liRjACVGL4jDL979SPpbHcN4KM6cF/So7J00wdsz8x5t9MXNrJ6fOYdHu2YnsJxKOUjW9uiUY22prll3/2EQJxmVJco7n64NohGjsdINkb1B8j2MhOEOlsdNo6cyjrn9pw/M9uf0HdXQFwzI4Pt5E/4dJOabbNi7DvApliMb4RSPHkwnW8Yy7LaR4xAERHpqlrn5hMK/UE4QJHKZxnF6E7ye9NyyosjGW9euRx4KW8u1b8OmsDZmu2L1GOlNUkIKXsjZxrIUFfeQnJekLidhDkykYl1gc/YMhGiEaV+dWxF4OGdkgLbU4cgkGQxaK9aTqli1JmtBoLTaKc7lXVCAZFO0kop/I2FiGaIzyALge0/1MxsbGXIqt3T8ia5yE2P4ghj2eRMz6Iq7TGqXxh2PfMzaWn4lsnuMPog981rY0yexHbToBDItpci242BKx2LG9zEI3VlFCReITLRjDVm5Wu0I0QjQut0EiNxjyKLg/o5vo6Vxmych8SjEpkokzOBlA7wUjJ+2STPKhR5mbi/3TIA4hGntPkFnynoyOjxlRhEfRelKSuN5yTnY/IxK64aino937yLgLJ85rg/a7UZ0UXGS1C4Gr/lpy9FlcKyiK/uDMsfXC1EGKdZvT714ZlyAJSpBQLJANopHdjUfubyqNM0SjjaJROo4tiXEQprJ3Uiz47cIx8fv05iCV5oW3BK9ziqmEBXU3LD0N4hCisYFN9ohMjxGKe2u0PBGXkSsK1HllI4eYa2rd5d34wRrnoIjO40Iom21C9VJv1sPlJ4N6Ha25qUkzG2yE/btZRHLJDk7bvbrsq/znbPKun36z66m6iz7j3RSlkF4gferU4SDiBCsE49JyHNFlW4RotFs0hunD52Ezre4weKBUEbyPt3sqCmhOGCKcHv1kg5aAn2AsQzQ24jGUpj1i72Nr/d9E4CL+kHmrnP6HoDdZq4Bg/4RDG6IyCBVTUGO50YRCHHrTwOZepvBoElwMOCUxtfH1mL9UFjRfZeZZccHotu9kk2Bc6qZqyCUPotEe0RimRx+DjfTSjdIhRuYIKr8jaynwz+7utXGmOdmNhX7c1DseppP/FGMZorFXbvr1OMY3MUaiiTnm+VSiZE+jsdw9sNqNFrifX0Z3vQKi3Y52Qe9O1F3VD52X/hZlzaHuQNbdQTaKRnJHOx2iMduiUarelEVtEteoNLTheFjS/ZMz4XZzY3Gr4HXNNJm0TD5jLURjmkSj5aFLRpIMtvadulGvRXhQs9a8lwXXDze9fwjdbRcKWBr7RrPe6ANiHjs6PJAeHeaQGRMYsCT6cOX2Kedr6U0nPo5JIBPpdp8XEyLNE3e0UjAusTaSOzNEYzZFY+i6MgvzxYreCuoKE+MvqJElWAKCkx900zVZbBHnMApjm7ogQ6BqxxiGaGxAFMzE+FjR/dP/WYNeFlcJXOdoASvjDwXuY2wU1xom+3w7hrXzKVp3Bne2r+TcARxKV0/OIxd7TmF5N/RswW5WX0tR7B5aVy2vvyUhRLj2odWikWpKQjRmUzSSC+MvYr5mqv3qv1E/zNOjuNUXneA5xZmQay6vF2bcVNUZyYnx5gyR/guSh3lRF6tewUp0AtY+iMbeu1KqG+KfD9k1lkvF1OdDTnpIP9+LeT6cz7UJe31YRplYJea64S2VTQ2LxscEDvpGRBQOcZLwGHm2kNNOjw9qyIodxqCbH98Uotej5E5h8g8sGNmxNv7UtAgZ1FRZnzN32Swa+fr5PrIhGikjHp96dqd56ldCY/W6bl9TJ40C9I/r0WTt6O1j2oiwJehKdsHpbOPKsZbsZh4+h89iyB54l5lRGKTyHy14L8+sfpOvT5TcEHMSOrObuljrkJHF3n+QLalcuoTvlU/buZGlZk+K7TqGru+SYr3u3zyIxmSJRo6Jiyn5zRR2qaZxk+tqPuT6iaEr+awYLEi/bfBA5yWBePSBxrwYSNwIjI/50WSUDtYYqTwFi+iw5UL+zgbHR9/QndXw9fpDe7KgvAchlan2sXER4lWabBaMS5tT3X0NsBx8sioxThtNa97Aqen10tY7mrAv7U1WOD5BDstWSHqKLDAlcsIM3rPl3Mv00atwTd6Q/m6y2KbT8c81OZ65/FRMnkSzWQxyhtweuUF6/sg4sxpCNK5oVBCPhZ3HFpbeHNhyrHIoHhdJli4o9avs3PuxoU43X6ZCPWLSo0ygj/8YyVzoqe9JrelRJo4LLdJTDF/zO93bANZrq0BIZa5N3smoa2q+ekwqRKNbOQoyMTuiMcyYKrlhVZyErPFNqT5K9JTd0beYc6UMRINYyvEVxbpQnNGS9vfVlYGK0ItgcAxrzJhGMlCHm/+HIBrjFY1hxlQt2P9VykrqRnDwd5hkDCYf3DVoqTM9d882VWs3dBU2fLCmDo8oBOJPMgeBPfNu6ta15/SB5g//uqELip4+BQIqg60Haed7uYkdkQrR6OlhkInZEY1cI0/QTXwaxc3uEtm1UwC9oHvfTFPPp55VkOM5xZLiXLyCpVOqD+dLxJdLxButKISjES+1PgXPvxaiMT7RWJQsfs6lzyJ8H8hqvTd97hyh6/+skb7neuLmrY068gNwPnATKOOjBjXV1m7ckNG+BXvJCLh53m1wLr/D8LWf03VHxh/gjBZPFsTbTQ1sdu9Kh2Cst6zENUI0ysZ+UVKb70bvKiRZiF6fac5TobKHzAJfj7ljj5v6Iar6s1jGOirpYno8s3VBcONMG389MZrYo2XCkawD90I0xiMaOfmWnJt2NNakFSxLZwhef2sD83aLQFzjbwyImMOSnqF2mdbRwyRcq03WxeT323AW7Be7c8LxBERUFkWj/zdzA9vfNk2icVjz1K0hFdMvGsNC7kIlFkydRtb60EHgc0Jpup8z6q0gGUvlqd9TO1RwDn6Hy2CYHtMSm9EObTG7UBnaKE2CaJQVjSObpm0slhCMDgZMzYf1LKsic8hLDV7neMPXODUKi90KHmW/Nt2vUXnjSBwI05p4m3FvKCp7ZTI+t0s3ZvpH4yCiMtl8YxsVSh6TJtEoVaIEojFe0SiYMXN2a99JWxmzllJGSqHEJ4t6VRS4Z65P48QED7lBSSXOiCKOtVtjwVPnCa4pD5tbU/yBEI2yopFCWAaIJQ3p529rcj8ilBhn8RKPhd6JAX2xcWMBhTBE1a8sQE3H/1NCpFdtOhAma/M3Tc/pvHcw6oXjVb2uRCMK/mazzTE2qGlDlCrRuLe/J6Ri+kUj13MUsjLeKnAvfxWyEJxh9lTV36eYvhrC1wmO6T9Kie4o43NXJCzI/SFEo6BodPX/Crl13ilweCLids7hAb2/xso2AuL2psgO9YIyJ8bjzQdHNA9KxOZOEJzXnzGYabfU1ZfPgYDKZovaVWGZpaPSnCrR2NXJC0Sj9aKRC6tLZU2VKOMSZlOVmEfuE3DHuT1F8+54U1kMV7O+S1lPnzU+Dqg0CUSjpGgUGjuO+UNZQdfzhxvsc7OHfRRz3GjdwGX7PH2LaY+cqMYzCaEbBQTuzVLzesHRP4qt7qhgsgG0hLXe1IWDaARpFI1h1kyB5CfqPxL3E5YOkUg5X41qE7LaBb8e01ZJwZy7mGJe9pUa00HNQ7kEOKcYn3fq5cEWQzSaF42czEPqEEXiXQhdKadLZMRuZPxwqQYbRHp4yGq6lu3vojsAMZ+NmzKvHyk1t5uNVdevdyUap0NAZbItMLZZgXsqRKNtotH1jxVKlvArsXvy9AMS98TjIUWWUyszVq/y+ee0I1U65Czvoy8KWU5fg2g0LxqpVuIRKXTVFgk/aCSurX7Yp6cZvsbLbZhb2P01wgNU48axUr/KzmKisV4+xNS96K5epI8hoLLY9DRjAxqJcCAaLRON9H1Xyrim+scInkYOEdokHSfzjOIp9h5Rm8TZKEVFo+ufKnRvL8qNafMZdSEag3ftUlvLbKzeA0qo/EaDVndKQPQLw9c4NoLxfI1pjxy2ZkZixMhVvy1hhGnbZew6UmO5XsvYWPzrYhbanQxQ9RIEVPYavZRvmXMnQ8kNiEbLRKPnPynhnihlkVlyeCOT/EFfLXi6aqtnzGHS7ylbFNL0/MN7Ogyi0bxoJKv4oxLXyy7UUmOHvusbQu/69Y2J2yD7daK9Q+gzPjCcLO7S6NZ2fYrAMx8Xw/yuzYWuVXfoTDTeBRGVSdF4v6nBfHZLdcM0icZBTZX1IRVTb2mUyMw4WfI5hSUrjMeA8QZTTAi76nTr5luqARnHeyrmjkeu3XJjuroDRKOEpVG/J3C9UyTfhzCu0XwODzqAbFzoqH8avsaRvRbfnt7N9OHq0Gb1NdsOz1KlD/La7UyFD0cnZdI99RKzmzs9Ih2iUQ+DTEy3aAyD+ucJFP59LgbhIFEUfYzcHdX6kEh9yqK5dsoIR30lFtHoqKdFrEXk/iXslrUAotG0aFSzBK73/2KYDz8UOER5v3EvET0sqX0v4Lr8TJTPnLOBYr8fYTxp2a18B52UvUauGnubdSXzj0mDaCwLZsSCaIxHNJJlfHOh9+4O6WfFQlXgvj4znUG1I3wKLbSpjcB1Ux0f13tK3/+2xD1Kx2pyxk2IRnOikTwUNhF6P+6J4Z2QqF87r9ExFBajN3mQuZiLxPeyD8eYze6qT4pWNPp/w56/p6JRfW+1HRoWzUUG1Wy1z1oPHreuycm54FWaUmFpFKipB9EYr2jksSr03l0QwybpDqHyPZtI3pdUzb7GNj/qT3G+pwIp8bm1ix+EuOovEI0mRaPaVeZAxW8TfyfMJ5kJGh9ERvD+Pmy4ruDgHs+7pktTeeqTqMOBTB8ypbR9vytz893opOw0TsVvenLmF58mpYttFox8/YhnTL9o5FM1offuZPENNmf/TUnZjZXcFB39jwTHMX7S25P8aKj1kXC5pvaK9J1x6RKIRnOiseBVDxLKq3B6DAcpFyS97IbYutSL2EvTh3XkGXObgWcOo1jPs7wP7GJw6v3RUZlqIpn8ynl1nN2iUS7BA0RjfKKR4m9PlNkk6aPkN0n+OTKLjM5J31uYkGF+Qg/mBsX5jrInSVqtqbSxvAGi0ZxoJDExIK2u2wVPFW0J/wnjdytJqq9K/feq0X6jGt9RPu/Qk3Ix9vw9fjd/0PngrCeCgAk3G22yVD2Zckt1B8vjGbeDRMyAaKQJUkZIVA+KwR3rbBlB7B8ciwumo69K4Bw7WjLGc1Xwu2N7Fu5OLAeXQzQaFI0UU5a2Go3LnoNM9uWo7o0SFv7UsEfECd0+iCLPCaMCzFP/ivp5h7Gh2PdHLRrDwXkmOisTrSx7sqcHWSkaY3CdgWiMSzT6Q2SsMpVmeauMPzCtG8AOFrV3kxQv3mmNKyGGt1Q2FXLDvUv+IERdBNFoUjSqM4QyuB8Qw9g5Qea98AdEIxon72T4GYzq9l7OUa2GazOeE/n6UBe62PebEI3h4vsxOizVTY3orzaQFhg2isZWR28PeZgN0UixqyNEksVQpmpxdyxysbZpk9SrjQG5giXFBYlT5SfhHS3npmwpU6NR3xyDpbEM0WhUNBZirwVn6hAtr48QCkU4McLx/n8Gr/XTgS0TPt/N63jW4HUsKOXbt4j6eYeZtrH3NyEaw1PpY1LYAbOpvcgnopzYhF0veOII4ji9qsc/+ff8klOsxIV0mnJnmKJ3Vtr6gu7r1Dg2MBy7YJVbKmIZs2VppPdeRjT6u8Rwsn6obZukXgjjfRITt0J1j5PwjkptlkgMXSMvGs16RWVeNErFQecre4gfMDm6v4znhX9alN5ahpOeHNJNz4UF5vam6lGb9yqZFY3hhPGE5Te8iO7hBV68OZX+oKba2r0ZbByEzEWL+VQzrHW20O5+0c/HFWfDCxm5e55vg2CkTfZ5I/cfv/EaIDOikaxkI9O6SaJDsqPTbGnk7Mb0/R/APXWFObefv63Q/V4ufm+G49IgGs1acuNMniWVKTvKQzSug8rzikHBdnuXwpVEsOHEYUeamQcrO0MEGhaNQ932r9J/0tbdqKP+zUKx2FdvZmLwBSct7LZBwboWCsZpvImI1V2KrCxWuKXm/W9AFmZNNNK8kVJ3LLq3U4RSdB8Sx1gseP61CSy38RInl4vV0lhfxwWSO/nXQjSmSzSaj11bWl5hX/H5wlHHCWVPjlQE0WfeY/B6dVdjnua0P5v8/t4ad7p83qbrSkI0LmfCt8Wy9nI9K6GUFa3Whyc7ttxZ0j+L40pSsbIbWfW7ibYy5vWBkIQZFI2uP1QkDTvNq/LvnB4ssknKqf3ED6Jy/l5JXafIinJWnO+oWCIcV/0SojFlotGwO+RSd32y+omPHaFM2VFnkw5d8E3G2+dX991hJuY5Br//OnOHppVtIAIFRGPwctGil/Abeyeu0+1lm019AF3Hm4nup4TE2DBtbbU1OTFHImsy0gkkXx8kYfZEY5ozjHJiFhnRqB3RuYTKBtH3jknw3DuTNyxxvaNiJTcc/zfy1nOzZWRQp1Emw2gcdZClDghpT9EStbGCPvfDODwG6O+/b1Sw5tSupp732S3VzSEChURjeEp9cRIT23DiCqlag11uXrgAa929bVbyHry+OmmCI+gvp3JSwuIYT2hrGb0W5GA2RaNYnEsMxaxNlydYakX19G6yFgN6bxO/+PpPxPWOhtnQJe7xQXHrueOfC9FoUDTm9IFCBw4D0zZ2loVL+XsaMFJcYvCax3di2b/f4Pe+ZvJ5hzHvEIJSojEcMKXEZKajk2UObE3iRppLNNBL/XpSXFJZWCdVdAQWR7K6JCJTKsUemNgkQDRaVHKDrGQycS6qKG5pdNWNEvfGJ7pyGz/1TfrOechY3dUmM8gcnjphTN95KUSjOdHIpYGEMoyeKz52HP9nMh5e0XsZDHEq/11P9GjomvP6Wyt+J5fjCLwmLHbjl5kHIRpXsDgGtb5mxrr4UikMPjVI8maaT3fDTVqcIvszikk4OfnSg9wtvIpHG4BLYhGMZEUvNLNLXTwZZSEakyMa6wc+EnEu6sYYhMNjAvc2TyrxC2/oSXy/atECPFVSUK/w7CXqLo9J28Y/66JxWPPkrYUS4dwmP3bUHwTubSF7VBk5MHPVUwafx4Wr8FQxWbJpzlneR180722jJwokP/s5ZxBPS+OSTVFtFOOI35vOPtU2barpeg+j1h5DX42NoxZcYy90ZRuarFpF3VHd6tDWlqlbQf5BNAaW73p83CKBe3oshrnoXYH7miA3X8hkuo3YGvdQLHOro/8hcUgpffDGyXcgGs2JRr5/+qz5Ahnvn5bfb6h/CjyHyQav/wRzXhHqqZXGLQl7g8//Xpn5QsADkOKssTNc1eaKTk/YxUrM6uioP/Gpl419Vc5N3CQ4fZDZjM4OykWQpdPWcUWlLvYmk/iFZsWiuqDsVvOj4I4K0RjHaaSr3xN9r8j6R987V+BZvSgzp1Z3MFmvLG11LOk7nxTJgpmbsmWarOdZF41hH49P02FTnSCZjETuidfMzYET1wsNKUYOgJbPFRL012SD6+EBEk+dPO8eEDgYvBQ7w04H7pQtQzdMI77C9Nl/kc7GZ6yvOD6AxK+hwUobQv9W9nVPQ1+N6K82oBjD/en5nx+tK6o6v5BX+/Hn4+2FaFzNJmm0wD3NNeW2tCrCGBgJUXSP0IbvWYvjRPSQvSZ9SVZc+XeLJEGiAz9h0fgBRKNZ0ch7MAk3TsmD7lK+fQuhMIT7Db/Xt5o7APL3WmZlrO5usJ8+kgpp4ISQAs/9PuwMuzN4++rNeEPObpER+AR/wi9Da6767TT2VZi84SaOcYkgucL7nElL+oRXzEIyoLYOZ2MseZWTOYNvLzOiXkSB3SdxcHfbgGRk2oVoTK5oJDecG4QKv/cVm58dfXRayvpI1Y6zX1x3XHP0j2TuS58pdU9hVtiFEI2mLY36pzLeZJVmsQN8qSzZtCc2a7QJ6tMaStamBy1bP1TBYB3LH8utg+oMgef+LnaGPX0wtDkPaoJ56s/dNGmTm5H/Ag2ea9i6NKiptnYW+ilw8eVCrY6+iibm57vpLqHo3z5O/XVOKV/ZI0vjiscFJyrhukelfPWYglsZTG5Xw5dYI2m8nUcnScN448J/z/+O/31WxhNEY1SiUaZWIx9mCFpkrhNKaLGvUaHQd9JW9UPFFGSlE6wtLFVvjy2aYht/itk3fT8QjXJjR1Y88J5LIkt29SCBuf0dMyJe39LBovmgqez+tOffTu65+3tKVCyIK+FZamjtO3UjthYVcmo/Lq8QZOUhH2Z2Ox3qtn8VPbQMHmwkuHMsnrmfuL8CN01yDxjZNG1j9BCAaDS8GaUCw0IC6zlB0ThWYrE0nQHPoHt/DLGNeqLUnG7SIrGCZeU/aTrcgWjkuWPyTkLvxMuC86FIIscRjvqK+QMhQwnBPPVSh/7yDfXRaMn9Slg2ZIH5w4JlVloAAAApFo1h0pgpEuUp6JBoQ9P3U2iu7ii06RtvVCR46vjU1cASKjXAYl7qnqTCSui7fgfRaF40hjHEvsA1L5A4RBGL76ZDIZH3gELDDGW4ncHPnuOvDfbRKdJ7FjrYekvATf957A4BACADorG+IfUfEnJRHGj8Xhx1mZC77a9M3QMlWPmyYOmiTyls4G9C37XYtEtvh83Sf2SKQeurTd9LkDlSwE0ZojGcQzz1exl3TvMWGs6NIGN1178WFEKPmLgHFtitrupnqI9mxJGQkL73epFM0pT4EjtEAADIgGikjcVgIdHwisn7COtOThbZJOX1EQaF772CJTFGhtbZuVIWWonNE2f1E7qfdnYDM3ovQnF2EI3hNXvqB0IxsW+YrPXJ+Q2kDk/o4OlYQSF0mKm4axLyJxuqBXl7HHsWqSRInHsEO0QAAMiAaOTYYqG6qrViTh9o7ATa0WcJCYV5pp6R3CIf1AP+95L6ZLSpuULQVfV6gY1lWczt1lUlc3cSuEu+DdEoJxqHt1Q2lYgFCyw09L4bfAd+KPQOLDAd372iGK4nSYza8hvUYr/AiGiMqZQe51iROhAkwX0kdokAAJBy0VjfYPgvCG0wxpioURbGovhCYutpE8+AY5zo8ydJiR2yDny3w8HBhhyXJPTdizgBmsnxzJ8vKIKnmMogKJQ2H6JxZcH1jFC/v8vux1H3exjXO0loHvmb+Hrl+D8zkEH1KkPunLGWpaDv/6PUPDisefLWduzman0kDzoAABCNqRKNwvUAr4vy2sNkPg8Llo8YaEboqNvkBKN6dKXvl0y+46l/mSxwHlgjZMuVPBt1uSOKbf2G5D1ANHZ8F4VKEQXvor456g0xWb/vF7v+GLJnmihBw3GZXFM28v5x/HNjFY0O1e2WmwffTrIYCzPKsgX+HbYsY1cLAIBo7AX8nfTdMwUXl3JUGyTaWP9c8LqnD2qqrB+5aOcatpQoRuge5nBN11X2Zb2GrlRfXm5yTEtunMPN8wNRCcew9MNHktcP0djx0KGyPr/rkrHF0QlG/xrBcTMzjvWq/o6oVyK+l2rYInXdLeXbt4hz3xJ4kVAiHsEx8RpnuU3S3q2cq+4QhmDoju7I2NUCACAae70I+7cKl2C4oRFrUyB0hTIddrCQ/Tzqfg83qB/IiRv1k9WOgbz+llQ8F3+PyZIVppJadJHc5IVGXbSoXvFx9FlTpa8donGFd0H2MCqwODaSVCkUB/cIj/db41qP6YDrzMSXGqJau0nYu0iPZWofmg5B6Aq2eNJh7KlcH3NVB7IQjQAAiMZGTuM8vZ2gYFgSD/M+nbIPaGuprdXd62ShGbqPTRJeCBezy2D04sa/VvAePu4qeyn9m5sEr+fNqN06lxDGuS6IYbM4q+T5bT05beeERPUkSGKxxRCNXW60K9tw0ivh5/ABHxr05J3gsRMekHwkPR+WnOruca3HYQz47ETXpnX1UYkQjXXPhUXC97+QxSqXkJK6Ty6bEoTaeP6TXdXzhGgEAEA0Nry4+HfHtMCyAPwlb5h4I0LJITbhzRBvnvjXbJGiBfhE+vs7O7qYyG4A1P2RC/Wcv1ewuMqJ9C5T44dJNNoFLc4XmhrPpmq6dTfLLidN4oyMnFmQknfsWepX2bnV07sF9eAcfTS9b+fU43H1tLg3uBCNqzjQoVIJMT2PyVwLlsut8Ny34nzIcyT/XXh9KiYr2h/iXpPp/n+bYNFYXZKdOhHCUbKU0wouzDTX3VLKV/aI8n54vuJD3PDA5JfUxvU0Wy52tQAAiMZGNnn9/G3pGj5LvNuPfJvP9Qyj7OuwruQYwXsY3YMNxhmC1zXXhAU3GM9Uew1jF6Kxt7T2nbQVff6nGB8rW5FMvbM9Eo05tV+C++j6BO5fFsTaJ5yh21N3kSfGEBo/ew9tVl9bXYhKYEkmaz+LTS7VVXc19S8NDwo4nnVWoyVWsKsFAEA0Nnx6qy/Gpsh87E7gwih3DwvKObVrtwVtkJFWvy54ff9nQrTwZ8bgtgfRmBLRGBygUJIajI+VYrvvSsKaHGbOnpDIPqL48KTtYcjz4sYEj6sZUjUlIRpXAQdFF7zqQTRp/5gW/1E0WN4K65jN6PCAKvU/57+nf0dqvqt4lzTSNqC2TqF54o7DOIOhVx1Ap9NnUX+MoL45nzd2/JNOSIaXXT2Y/54zHXI2prYByXE9ABCNURGmpR6LzdGy+lNRZ4MjN9tvisZL9SKBT1jrcLFgP5dNjGds+iEaI/AIeBtjZFkG6XJuypaJEUKyh2/dbPr1JO5hwizpOESDaOwgFNmEW4+jmN9rNyxXPUUi6RT+vLT2VT2ZxqTd+T4pVuriQBz2tAX/T588jGJUWHhCVkE0pkE0BqLGqzQ1MIekqtEh0jFRW79owXpV8B50bzfVYe0yqev8bNWlQBqDD0LjioOFaLRfNAYHD/WswnMxToLkLicmynpWD6lYlKg+IvfLpO5jSNAekLT+gmiUF4ub00D4qYE6azNJFF2dtJorjZ60lJ1Kf05O0CuhuFoBSdZIehnTLLQhGrMjGusbPh7Tmd8k3RO95UsPF76HHza2tojW+HqWa81Fv1FSZYxliEbL3tsENj0qmUJIPZOgfpqT5AL3waFwvWYhRGPWoCxa63FgKA9Swx08u+DoHzVSQyhuBjW9vnbd/VRdFKlYXKmpC8v59r17UkIAQDQmUTQGxd4pQ16GF5YPot6Mslu7cKKh1zjup6GNv6OHCW9MzzSxVtIhyH+w6YdobGQ+5AzKGR4jE7iMTSJFo6NPSlA/3Zf0vQzvT/mADqIxS4LRreQlC0KHbVwpr13b+mp4ULtFFc2KxeUbidMCZ36C1IJotFc0cvbAqRsJZ/hMSmvn5x25CK8XGpa6h0U0D/Vt/MCttjZ9zr8kEyIMa568deQbS4rZhziEaGwE9iTi2qIZtDBOS0K21NXPUZX1aY76JAl9RS72/W3YzwSllWTndYjGWE4I6tmiLogxde4CTixgwoUo8nPBwFJSaSZr7CWSgnGpcKTvJeHo2dBXAKJx9VaaKVtmzEozp5DTTtT9GBQdtjTDYRgHI/kMHjNikXD1/9oXQ6b+IlFjDaKx28Jx8xgO7ONsc2k/05L09Znqvd6WgL76uFHPDtE+43hQLoMB0ZhSwcgmZdoIJKLDqVYKn0Anta9Gcap1Kp4ch1hcOd6xcpSJBRlANArf+6QsbJAos+nh0Vtsqd6b5Ek4f1fEseh0CPaQ7KKuTzZyup7UFP2rSWI0wlFf4ey3EI3JEI3B+0wJmzKShXIeGQkG2LA+t7qqX+z95ajLbNvXlD29XRYzqqZeNNbT4PtPJMxl4fEkxjkG4jqvT0qEYFyWafXEtpbRiHOEaLRSNDJciJeub3yKF5KZXCzaiIXLUX8Stk6VjJxKU3y74H1MNZGEjetVGkgaZ6ItJrF4qJRgh2js4TtN4Sf0Xv87xfPhLHbptmmNjrlU1GIT2Z/FLI4ZK7OVatFYL1DsP5jQzv9jkpK+tLXV1iy7/rGJEozLkuQcz9cH+QXRaKNoDBaXfPsWdI2vpHARqVKc+HfMbC7VCcL38o4pLxBOiCZsbXzAzH2owxOfdr6D1UKiRAtEY88JrMCuejGF8+FUttzZtkYXXD0ivtJM6jmb9zcjm6ZtTFblJyEaUwA9yF8kPObixuT0lTo0mYJxicXRPxjyC6LRVtHIhF4Pd6dmAfHUS0MoWZaJvqLkEV/mpDqii6Eha2ndSscZu4XdOynMwIxw9E+jz1+YyA2Nq27vGAtPf1aBaEyeaAzecar5TIcQd6ZoQ/0Ke5XYuEaH8aYL4nln/VNTYaCiCgMx5kyBaGz85MQ/FgVfu316/M1EC8awlZvVrpBgEI22isZlBzT6FOEafpFnF6WF4ycmPSUkEphIWOaWm2c9faTwc/JJrG5i0AqctA3SfR0FXJC9VsAqCtHY4L2SJ1FSMnj2dj7kutxJzlXRrXeavN/iCG0Y0V9tkJa9DpVZyqXdXTWVojGMIZppyUOYYeq0vjuECQ4usEE0ctH0kftP2xgyDKLRZtG4bI7Sj1u4aLzJZYtM9k3ZU98TvqfPpMr80Hf9Vfbe/LvNbZD8Q7ikQEIsjFesmG2bBRFKbiRfNNYPISrb0DN81EJvi3/akCG1W2Mur4+IoQ/vSNt+p15qyR9J9/ZpCkWjT+7E+6bQymjZ5EOFwOObrNUJVgjGpeU41PchwyAabReNyyxq+mhLkkJous4zTGczDuJDhLPNUjzPxWIbs36Vnek758t6s5hz7Q8PaP8eaxKm1WSLDV3uIBotEI3LCxf9ng31aGneGJym7O6hZV6Lzk0W1i/vLkGIheP/LDiUtF8sjqP38swkJvC08ZQ6IpNv9SDxDavbvpNNgnGpm2quugOkGERjGkQjwxsP3vgm1K1lArnTDm/tO3UjkU2jfM2w8dILYbiREK2BZvL5cWwaPbcLg6yRwlnIO7MQh5kNIRotEo1L5kMO26HrG5PA+fAjiuk9lw+30rhWFzz/WsH3970s1OJm8checjwP21ZGi4xKv+dawzbV0OyFEIr11LMRP+FX5QW2HmSjaKQX8HRIMYjGtIjGZdT6UCz2PjRJj6L7mRPjfLSQrIpPsxVU8iS9fu9ULkFy3jVQW7LLTQQJOHbzEXZTvdX8fU3ailxWf2M81pFcAjlnQZdW0Fzl6xCN9onGFTbce3OsqnDJmpXnQ1eN5rqLScp4b2QOpvwWgq6952VpH1Q/DAne63sS7Lr6GXs+crIzU/HwCTslqR5ktwlYHyDWV80Td7RSMC6xNlJhVcgxiMZ0icblhUXd+hjUmZsuslhQIgReLIa3VDaVvt9BTZX16fs/kI1H8p+M7XCzngxJtBaaVOxVOTdlSy57Qd+pIj/ICOovds86UXKqu0M02i0al8BzO1sfOWGVUBzt7LBG7A/ZUpSl9Zru+TUJIT7Ubf9qVvdE7N0S6pWbaE77l/Rh6XI1RV31DO0zLqVamf05y3emHgRZoB6xWzT6D4n1FWUss1o0duOkGYC0nFBy7S/OWhZact5uyBJZz1T4Jm2+/peyvZ1Vylf2sD3zH0juuOUNCY23l3t4us5ZTz+gNf1+FthD9pr0pR4fvOSq35bInJkFF7ukjatyzt+LRF2BEz3RGHmrQUvkDP4MEqW/poOks7nuLOZDIAkf1HJoHdfzrR+MqHcD99Do5qkp9K68EWqkKzk3CMfXpykmt8fwokIdMc/yYNN5vVkce3Oqz8kfbBaNfP18H5huQDap9RnWPHnrQk47NG8cxifi1MpB1rYljTZVtAANIpej43hBKufUrmmNxQF2jFnOFF7M6QPJ9fkkTiSyZKzSGG2lA5GB1I4peJWmKOZ2OhzpK3FSj+eajLHF7tFL5kM6FP8BbZBLq5oP+cA8yH2R19+yxdIKskkp374FH2KQZ93+QZIoSlzJY5gE4DnLjW2eQ3mt578jN2r2WqTY+T0LzdUdsU9eXedSnFsqaqCQe5jpvuJF2WbBuLSR+xFGPgAAgJXWOdf/rkRWYfQ0AABYRj3LTwpEo6t+a/70onpMKkSjWzkKIx8AAMBKorGekdh4dmH0NAAA2CYaxbPRGWuTjYtGV49IhWj09DCMfAAAACvtCYKYN+Pr9dvoaQAAsGlx6Ks3S4lgDJrJ7IVU8HjDdAjGeoO/NgAAgJX2BZ7/C+PrNWXYRE8DAIBNi4NTaU6TaKSAV9dUX5Va/G3TJBqHNU/dGm8AAACA5fYFrn7dfDiJvhk9DQAAFkEB76emSTRyLIYx0UjJY9IkGjkDGt4AAAAAS9c5yjooUfuMROMI9DYAAFiEUOyCnKXR84eY6iuum5Uq0bi3vyfeAAAAAEtFo6OHCXkFHYHeBgAAm0Sjqy5IlWh01fnmBHalOVWi0at6eAMAAAAwbbuMXYfW0Q9lRGP7FuhxAACAaIRohGgEAIBMUupX2dnK/YCnhwut1R9ilAAAgG2LBNxTuw3cUwEAAHQtvtQntB79neL2Bo9smraxDdfc6und6Jpnp6WmMgAAgIhBIpzug0Q4AAAAuikal6xLs2ldeoDKWAxIapmjUj9/W7rOj8UOdx1/IEYJAADYtrih5Eb3F1aU3AAAANAz0dixzaIQivvJDfQUrpGchGtlDxq6rkmC6/S8s7yPvohRAgAAti1utHClSTQOb6lsaqqvzm6pbpgm0ZjUU28AAEipaOzYFnM9RHLVvIIsb4dIC6nWvlM3Knn6arqOBcLr9GMYIQAAYOsC5yo/JaJxsum+KlFtqXSIRj0MIx8AAGITjSu2RdTGFBx1J7XWslvJs7CL+trKObVryfWv6eU1JjqEBAAAgOkFzlH3pkQ03mNcNOb9Y9IgGsuePhIjHwAAEiMaV9cq1F7k5DG0Vl9WdP2hJU8d3+ro/gWv0kRz+XbcuIQFWyu5tfadtFXZ9XfhcA26lkOpXUT//9EEHBBPaj143LoYIQAAYCkUY3F6KpLgOP5ppvuKF+lUWBopqQ9GPgAAJF40pqdRSQ+MDgAAsJhybuImNKHPtXxBmjdkr0lfMt1XHAdIadQvtlkw8vUjnhEAACAaBdvUc932L2B0AACA7Yuco/5g94LkPygmsvPqOLtFo38sRjwAAEA0inkCUc1KjAwAAEjDIpfTB9q8IFFMx/5iorGluoPl8YzbYcQDAABEo1B7rW2N2poYGQAAkJaFjiZ2SxekV6T7ijLADbJSNFL8KkY6AABANAq1+a2e3g2jAgAAUgTXirJxUeIsctJ9Ncxr/x8bRSP11fYY6QAAANEo0/SZGBEAAJDGxc5Vf7QslvGh2EQ2pT23yi0VsYwAAADRKJYtVd2F0QAAACml1M/flib7GZYsSJ8Uvco2sfVVy/T/InfP820QjNRX543cf/zGGOEAAADRKND+2rbL2HUwGgAAIMVwdk1LROMJcfdVUEDZBrfUvP8NjGwAAIBoFPAAeoJKea2HkQAAAFlY9Fx1U8IXpuuTI7Kr3020lTGvD8SIBgAAiEbTjbxvHmk9eNy6GAUAAJAROD02BbCPSuqiNGBA7XOJ6au22ppsnU1kTUZHHcfXhxENAAAQjQbb4qKjr0rS2gwAAECIgS0TPk/C8fGELUyPJfEUs62ltlbRqZyUsDjGE9paRq+FkQwAABCNBtuUkusfjCcPAAAZhsUQWavuTISF0fF/M6iptnZi+4otjo46PBGZUj19JE58AQAAotGkdZHX5WJfvRmeOgAAAKLWp+D459ICsSCu4sBFTw/n67Chryijq0eJAC6JRTC6+uJCs3bs6CsAAIBotLS91uqqfnjaAAAAVqKU127RUf+WXJgoVvD9kqNz9m0aKtuUHNUq6o7qVoe2tkzdCiMVAABinP9d9f2w5vHc1MUtev6T5MmyP54yAACATuF4wgJZs2jx+Mzw4jSLRNeFNmdhY9deKnWxd8lTF5oVi+qCslvNj4I7KgAAJAau5UteOqeR58lD1tQ/XnWrUAK6G8s5tSueKgAAgB4xwlFfoYXkSgML4YyCq64gsfXl1PRVf7UBn8zSont+tK6o6vxCXu3Hn48RCQAAyYXj8fkQseCpn9A6N5oPRhMuFD8gq+IvaK1p4WzqeIIAAAAaFkQFT59MAuYvtMjM6+XiNJddXihd90lpFkBtA2rrtHp6t5JXOZmttb3MiHoR1V08idq32gaMXQcjEAAALFwPyBOllK/sQSEfZ5BXzQ10WPoUW/RiEogzSMy+SmvwLVymaajb/lU8IQAAAMYY1FRZv9XR/UOXyfuovUltcgdr5Iz67/03+O8Ljv4RlfQ4gP9f9vqKTp0dvT2f4pby1WMKbmUwCefhS6yRJA7PK3l6GPXPmfz3/O/43yc5eywAAIDGKOcmrjc0V/k6r41111Z1AbXrgiyl9RJYZKXUr9ebGh+2Kv1+Gv2cszR5XPD74M8+DKyGrnqZ4yxJnN5OQvUyWoeH8ne09p2EOHgAAAAAAAAAAAAAAAAAAAAAAAAAAAAAAAAAAAAAAAAAAAAAAAAAAAAAAAAAAAAAAAAAAAAAAAAAAAAAAAAAAAAAAAAAAAAAAAAAAAAAAAAAAAAAAAAAAAAAAAAAAAAAAAAAAAAAAAAAAAAAAADW8v/cwFOMGIV5LQAAAABJRU5ErkJggg==;" vertex="1" parent="1">
          <mxGeometry x="394.76" y="180" width="178.24" height="40" as="geometry" />
        </mxCell>
        <mxCell id="W52F-aJRYK7GDW3l5he3-7" value="" style="endArrow=classic;html=1;rounded=0;strokeWidth=2;" edge="1" parent="1">
          <mxGeometry width="50" height="50" relative="1" as="geometry">
            <mxPoint x="590" y="199.5" as="sourcePoint" />
            <mxPoint x="780" y="200" as="targetPoint" />
          </mxGeometry>
        </mxCell>
        <mxCell id="W52F-aJRYK7GDW3l5he3-10" value="" style="shape=image;verticalLabelPosition=bottom;labelBackgroundColor=default;verticalAlign=top;aspect=fixed;imageAspect=0;image=https://media.githubusercontent.com/media/NVIDIA-ISAAC-ROS/ros2_benchmark/main/resources/ros_2_rosbag.png;" vertex="1" parent="1">
          <mxGeometry x="45" y="401" width="80" height="80" as="geometry" />
        </mxCell>
        <mxCell id="W52F-aJRYK7GDW3l5he3-19" value="&lt;div&gt;Additional information must be sent to the&amp;nbsp;&lt;b style=&quot;background-color: transparent; color: light-dark(rgb(0, 0, 0), rgb(255, 255, 255));&quot;&gt;/keypoints/v1&amp;nbsp;&lt;/b&gt;&lt;/div&gt;&lt;div&gt;after each&amp;nbsp;&lt;b&gt;/capture&lt;/b&gt;&lt;/div&gt;&lt;div&gt;&lt;b&gt;&lt;br&gt;&lt;/b&gt;&lt;/div&gt;&lt;div&gt;- mission_name&lt;br&gt;- stamp&lt;br&gt;&lt;div style=&quot;&quot;&gt;&lt;span style=&quot;background-color: transparent; color: light-dark(rgb(0, 0, 0), rgb(255, 255, 255));&quot;&gt;- image_name**&amp;nbsp;&lt;/span&gt;&lt;/div&gt;&lt;/div&gt;" style="text;html=1;align=center;verticalAlign=middle;whiteSpace=wrap;rounded=0;" vertex="1" parent="1">
          <mxGeometry x="190" y="90" width="190" height="110" as="geometry" />
        </mxCell>
        <mxCell id="W52F-aJRYK7GDW3l5he3-21" value="" style="group" vertex="1" connectable="0" parent="1">
          <mxGeometry x="843" y="150" width="80" height="80" as="geometry" />
        </mxCell>
        <mxCell id="W52F-aJRYK7GDW3l5he3-12" value="" style="whiteSpace=wrap;html=1;aspect=fixed;fillColor=#dae8fc;strokeColor=#6c8ebf;sketch=1;curveFitting=1;jiggle=2;" vertex="1" parent="W52F-aJRYK7GDW3l5he3-21">
          <mxGeometry width="80" height="80" as="geometry" />
        </mxCell>
        <mxCell id="W52F-aJRYK7GDW3l5he3-8" value="" style="aspect=fixed;sketch=0;html=1;dashed=0;whitespace=wrap;verticalLabelPosition=bottom;verticalAlign=top;fillColor=#2875E2;strokeColor=#ffffff;points=[[0.005,0.63,0],[0.1,0.2,0],[0.9,0.2,0],[0.5,0,0],[0.995,0.63,0],[0.72,0.99,0],[0.5,1,0],[0.28,0.99,0]];shape=mxgraph.kubernetes.icon2;kubernetesLabel=1;prIcon=api" vertex="1" parent="W52F-aJRYK7GDW3l5he3-21">
          <mxGeometry x="8.75" y="10" width="62.5" height="60" as="geometry" />
        </mxCell>
        <mxCell id="W52F-aJRYK7GDW3l5he3-22" value="" style="group" vertex="1" connectable="0" parent="1">
          <mxGeometry x="843" y="401" width="80" height="80" as="geometry" />
        </mxCell>
        <mxCell id="W52F-aJRYK7GDW3l5he3-11" value="" style="whiteSpace=wrap;html=1;aspect=fixed;fillColor=#cce5ff;strokeColor=light-dark(#006eff, #babdc0);sketch=1;curveFitting=1;jiggle=2;" vertex="1" parent="W52F-aJRYK7GDW3l5he3-22">
          <mxGeometry width="80" height="80" as="geometry" />
        </mxCell>
        <mxCell id="W52F-aJRYK7GDW3l5he3-2" value="" style="image;aspect=fixed;html=1;points=[];align=center;fontSize=12;image=img/lib/azure2/databases/SQL_Database.svg;" vertex="1" parent="W52F-aJRYK7GDW3l5he3-22">
          <mxGeometry x="19" y="8" width="48" height="64" as="geometry" />
        </mxCell>
        <mxCell id="W52F-aJRYK7GDW3l5he3-23" value="" style="endArrow=classic;html=1;rounded=0;strokeWidth=2;" edge="1" parent="1">
          <mxGeometry width="50" height="50" relative="1" as="geometry">
            <mxPoint x="190" y="199.5" as="sourcePoint" />
            <mxPoint x="380" y="200" as="targetPoint" />
          </mxGeometry>
        </mxCell>
        <mxCell id="W52F-aJRYK7GDW3l5he3-24" value="" style="endArrow=classic;html=1;rounded=0;strokeWidth=2;entryX=0.497;entryY=0.711;entryDx=0;entryDy=0;entryPerimeter=0;" edge="1" parent="1">
          <mxGeometry width="50" height="50" relative="1" as="geometry">
            <mxPoint x="85" y="350" as="sourcePoint" />
            <mxPoint x="84.5" y="385" as="targetPoint" />
            <Array as="points" />
          </mxGeometry>
        </mxCell>
        <mxCell id="W52F-aJRYK7GDW3l5he3-26" value="Push keypoint information to the local API, which will be saved in the database.&lt;div&gt;&lt;br&gt;&lt;/div&gt;&lt;div&gt;&lt;b&gt;POST: /api/keypoints&lt;/b&gt;&lt;/div&gt;" style="text;html=1;align=center;verticalAlign=middle;whiteSpace=wrap;rounded=0;" vertex="1" parent="1">
          <mxGeometry x="590" y="130" width="190" height="60" as="geometry" />
        </mxCell>
        <mxCell id="W52F-aJRYK7GDW3l5he3-28" value="Continue saving the image into the ROSBAG with the same name sent to Foxglove via the&amp;nbsp;&lt;b style=&quot;color: light-dark(rgb(0, 0, 0), rgb(255, 255, 255)); background-color: transparent;&quot;&gt;/keypoints/v1&lt;/b&gt;&amp;nbsp;topic." style="text;html=1;align=center;verticalAlign=middle;whiteSpace=wrap;rounded=0;" vertex="1" parent="1">
          <mxGeometry x="2.010000000000005" y="280" width="166" height="60" as="geometry" />
        </mxCell>
        <mxCell id="W52F-aJRYK7GDW3l5he3-29" value="A panel will be available to insert the correct &lt;u&gt;code information&lt;/u&gt;, with two options: either save with notes or without notes.&lt;div&gt;&lt;br&gt;&lt;/div&gt;&lt;div&gt;After each message received from the&amp;nbsp;&lt;b style=&quot;background-color: transparent; color: light-dark(rgb(0, 0, 0), rgb(255, 255, 255));&quot;&gt;/keypoints/v1 &lt;/b&gt;&lt;span style=&quot;background-color: transparent; color: light-dark(rgb(0, 0, 0), rgb(255, 255, 255));&quot;&gt;topic&lt;/span&gt;&lt;b style=&quot;background-color: transparent; color: light-dark(rgb(0, 0, 0), rgb(255, 255, 255));&quot;&gt; &lt;/b&gt;&lt;span style=&quot;background-color: transparent; color: light-dark(rgb(0, 0, 0), rgb(255, 255, 255));&quot;&gt;or each save, the form will be reset. This means it will be ready for another keypoint entry.&lt;/span&gt;&lt;/div&gt;" style="text;html=1;align=center;verticalAlign=middle;whiteSpace=wrap;rounded=0;" vertex="1" parent="1">
          <mxGeometry x="403.88" y="250" width="160" height="210" as="geometry" />
        </mxCell>
        <mxCell id="W52F-aJRYK7GDW3l5he3-31" value="" style="endArrow=none;html=1;rounded=0;strokeWidth=2;entryX=0.497;entryY=0.711;entryDx=0;entryDy=0;entryPerimeter=0;startFill=0;" edge="1" parent="1">
          <mxGeometry width="50" height="50" relative="1" as="geometry">
            <mxPoint x="85.01" y="240" as="sourcePoint" />
            <mxPoint x="84.51" y="275" as="targetPoint" />
            <Array as="points" />
          </mxGeometry>
        </mxCell>
        <mxCell id="W52F-aJRYK7GDW3l5he3-27" value="Save to the local database for post-treatment." style="text;html=1;align=center;verticalAlign=middle;whiteSpace=wrap;rounded=0;" vertex="1" parent="1">
          <mxGeometry x="837" y="280" width="92" height="60" as="geometry" />
        </mxCell>
        <mxCell id="W52F-aJRYK7GDW3l5he3-33" value="" style="endArrow=classic;html=1;rounded=0;strokeWidth=2;entryX=0.497;entryY=0.711;entryDx=0;entryDy=0;entryPerimeter=0;" edge="1" parent="1">
          <mxGeometry width="50" height="50" relative="1" as="geometry">
            <mxPoint x="883" y="350" as="sourcePoint" />
            <mxPoint x="882.5" y="385" as="targetPoint" />
            <Array as="points" />
          </mxGeometry>
        </mxCell>
        <mxCell id="W52F-aJRYK7GDW3l5he3-34" value="" style="endArrow=none;html=1;rounded=0;strokeWidth=2;entryX=0.497;entryY=0.711;entryDx=0;entryDy=0;entryPerimeter=0;startFill=0;" edge="1" parent="1">
          <mxGeometry width="50" height="50" relative="1" as="geometry">
            <mxPoint x="883" y="245" as="sourcePoint" />
            <mxPoint x="882.5" y="280" as="targetPoint" />
            <Array as="points" />
          </mxGeometry>
        </mxCell>
        <mxCell id="W52F-aJRYK7GDW3l5he3-35" value="** image_name: {mission_name}_capture_{stamp}.{format}" style="text;html=1;align=center;verticalAlign=middle;whiteSpace=wrap;rounded=0;fontStyle=0" vertex="1" parent="1">
          <mxGeometry x="-20" y="535" width="331.99" height="30" as="geometry" />
        </mxCell>
        <mxCell id="W52F-aJRYK7GDW3l5he3-36" value="" style="whiteSpace=wrap;html=1;dashed=1;dashPattern=8 8;strokeColor=#2D7600;imageAspect=0;rounded=1;glass=1;sketch=1;curveFitting=1;jiggle=2;fillColor=#60a917;fontColor=#ffffff;" vertex="1" parent="1">
          <mxGeometry x="788" y="-90" width="190" height="140" as="geometry" />
        </mxCell>
        <mxCell id="W52F-aJRYK7GDW3l5he3-37" value="" style="sketch=0;points=[[0,0,0],[0.25,0,0],[0.5,0,0],[0.75,0,0],[1,0,0],[0,1,0],[0.25,1,0],[0.5,1,0],[0.75,1,0],[1,1,0],[0,0.25,0],[0,0.5,0],[0,0.75,0],[1,0.25,0],[1,0.5,0],[1,0.75,0]];outlineConnect=0;fontColor=#232F3E;fillColor=#01A88D;strokeColor=#ffffff;dashed=0;verticalLabelPosition=bottom;verticalAlign=top;align=center;html=1;fontSize=12;fontStyle=0;aspect=fixed;shape=mxgraph.aws4.resourceIcon;resIcon=mxgraph.aws4.desktop_and_app_streaming;" vertex="1" parent="1">
          <mxGeometry x="844" y="-59" width="78" height="78" as="geometry" />
        </mxCell>
        <mxCell id="W52F-aJRYK7GDW3l5he3-39" value="" style="endArrow=classic;html=1;rounded=0;strokeWidth=2;entryX=0.497;entryY=0.711;entryDx=0;entryDy=0;entryPerimeter=0;startFill=1;startArrow=classic;endFill=1;" edge="1" parent="1">
          <mxGeometry width="50" height="50" relative="1" as="geometry">
            <mxPoint x="883" y="60" as="sourcePoint" />
            <mxPoint x="882.5" y="115" as="targetPoint" />
            <Array as="points" />
          </mxGeometry>
        </mxCell>
        <mxCell id="W52F-aJRYK7GDW3l5he3-40" value="&lt;b&gt;LynxLab&lt;/b&gt;" style="text;html=1;align=center;verticalAlign=middle;whiteSpace=wrap;rounded=0;fontColor=light-dark(#fafafa, #1f2f1e);fontSize=10;" vertex="1" parent="1">
          <mxGeometry x="836" y="-3" width="60" height="30" as="geometry" />
        </mxCell>
      </root>
    </mxGraphModel>
  </diagram>
</mxfile>
